Patient4_TMGait_0pt6_01_left_36_EMG.mot
version=1
nRows=23
nColumns=33
inDegrees=no
endheader
time	1LAddLong	2LGlutMax	3LGlutMed	4LIliopsoas	5LSemiMemb	6LBicFemLong	7LRecFem	8LVastMed	9LVastLat	10LGasMed	11LTibAnt	12lTibPost	13LPeroneusLong	14LSol	15LExtDigLong	16LFlexDigLong	17RAddLong	18RGlutMax	19RGlutMed	20RIliopsoas	21RSemiMemb	22RBicFemLong	23RRecFem	24RVastMed	25RVastLat	26RGasMed	27RTibAnt	28RTibPost	29RPeroneusLong	30RSol	31RExtDigLong	32RFlexDigLong
45.118	0.005493	0.21774	-0.011139	0.007172	0.004883	-0.046234	0.032349	0.018005	0.066833	-0.048523	0.011292	-0.002289	0.014648	-0.11673	-0.014038	0.006866	0.018005	-0.69214	-0.068817	-0.041199	-0.10788	0.13214	-0.093384	-0.017242	0.13458	-0.02121	-0.23392	-0.02182	0.19592	0.20676	-0.003357	-0.010681
45.119	0.002899	0.2066	-0.011902	0.014954	0.027008	-0.028839	0.053558	0.007477	0.062866	-0.046082	0.002899	0	0.011597	-0.083008	-0.007935	0.009308	0.04776	-0.66605	0.085907	-0.024719	-0.10239	0.11551	0.14557	-0.14008	0.00885	-0.016937	0.01358	0.005798	0.074158	0.39383	-0.006714	-0.010071
45.12	-0.002899	0.21225	0.007019	-0.010223	0.039368	-0.016937	0.033722	0.006104	0.071869	-0.042572	0.006256	-0.003967	0.007935	-0.074158	-0.00885	0.016022	0.047913	-0.57373	0.20264	0.041199	-0.017853	0.12238	0.04715	-0.19409	-0.027161	-0.023956	0.012207	0.024719	0.064087	0.35111	-0.00351	-0.011597
45.121	0.003815	0.2272	0.038147	-0.002289	0.017853	0.014191	0.029144	0.006104	0.061035	-0.03952	0.005951	-0.007172	0.02121	-0.083771	-0.010376	-0.002136	0.052185	-0.55237	0.32394	0.070801	-0.028687	0.088501	-0.023956	-0.09613	-0.018158	-0.002136	-0.001678	-0.01236	-0.067139	0.25864	-0.002594	-0.015564
45.122	-0.002899	0.18707	0.039215	0.007172	-0.027771	0.043182	0.029449	0.008392	0.041504	-0.035553	0.010529	-0.003204	0.011749	-0.044556	-0.004883	0.018311	0.037537	-0.5397	0.45853	0.016174	-0.23331	0.19669	-0.032043	-0.071259	0.006714	0.027924	-0.052795	-0.037231	-0.16129	0.26016	-0.004272	-0.011292
45.123	-0.005798	0.21179	0.002594	0.003204	-0.12802	0.004578	0.020142	0.002289	0.052338	-0.049133	-0.002594	-0.014191	0.020447	-0.019531	-0.001526	-0.004883	-0.019531	-0.38696	0.073547	0.038757	-0.21347	0.26367	-0.044403	0.00412	0.008698	0.025787	-0.009003	-0.050812	-0.13016	0.10803	-0.001831	-0.013123
45.124	0.00061	0.21027	0.017395	-0.006256	-0.1355	-0.052948	0.036316	-0.003815	0.039368	-0.028229	-0.05188	0.002136	0.023956	0.068359	0.005646	0.002289	-0.062103	-0.42633	-0.26627	0.020599	-0.09201	0.24536	-0.10315	0.00351	0.06485	0.037231	0.000153	-0.003052	0.027771	-0.2092	-0.003357	-0.016174
45.125	0	0.18372	0.022125	0.012207	0.065613	-0.06424	0.022736	-0.004272	0.032196	-0.022888	-0.055847	-0.002136	0.067139	0.11978	0.005951	0.002747	-0.047913	-0.33615	-0.34164	0.0354	-0.1416	0.2623	-0.068512	0.020294	0.062256	0.070953	-0.04303	0.030212	0.016022	-0.43488	0.001068	-0.008698
45.126	0.006866	0.15595	-0.054016	0.018463	0.12512	-0.079956	0.018158	-0.006104	0.0383	-0.037994	-0.055389	-0.008392	0.12116	0.16052	-0.003052	-0.00885	-0.041199	-0.33585	-0.38834	-0.023193	0.32272	0.16342	-0.076599	0.061646	0.01358	0.050964	-0.033569	-0.001373	-0.1004	-0.49622	-0.005951	-0.007477
45.127	0.018005	0.14221	0.004425	-0.003204	0.08667	-0.074768	0.013275	-0.007782	0.045929	-0.043793	-0.045624	0.000305	0.085754	0.094604	-0.013885	-0.000305	-0.026703	-0.31525	-0.49561	-0.054626	0.40085	-0.00885	-0.078278	0.074158	0.021973	-0.053406	-0.018158	-0.065308	-0.13107	-0.70374	-0.00061	-0.012512
45.128	0.014343	0.15228	-0.014191	-0.005035	0.063019	-0.04425	0.000153	-0.007782	0.045166	-0.048065	0.038452	0.000305	0.093079	0.007782	-0.013123	-0.010223	-0.007629	-0.24887	-0.25604	-0.078888	0.23254	-0.020142	-0.067444	0.015411	0.036011	-0.13855	-0.039063	-0.058441	0.10513	-0.69595	-0.002899	-0.001831
45.129	0.001831	0.1767	-0.001984	-0.011444	0.050354	0.009918	0.013123	-0.00824	0.046234	-0.055237	0.14069	-0.001526	0.12848	-0.10956	0.005188	-0.000305	-0.006409	-0.23285	0.24323	-0.038147	0.12329	0.041046	-0.017548	-0.036316	0.037994	-0.045013	0.031281	-0.28046	0.10284	0.46799	-0.000305	-0.00946
45.13	-0.001678	0.13199	-0.018463	-0.003204	0.068665	0.07843	0.005341	-0.008545	0.033417	-0.046082	0.079346	-0.000458	-0.078583	-0.16754	-0.000153	-0.015564	-0.017548	-0.20981	0.43076	0.049591	0.090332	0.10773	-0.023193	-0.041351	0.050049	-0.010376	0.054016	-0.002594	0.06485	0.83435	-0.003052	-0.021057
45.131	0.001068	0.094604	-0.020752	0.005035	0.059967	0.10895	-0.005035	-0.008392	0.043182	-0.045776	0.037994	0.000916	-0.25177	-0.11093	-0.003967	-0.00885	0.008392	-0.18463	0.067291	0.065002	0.030823	0.14908	-0.037842	-0.066833	0.014038	-0.003204	0.079956	0.26291	0.050659	0.50873	-0.002899	-0.02533
45.132	0.003662	0.11307	-0.027466	0.010376	0.037079	0.12833	-0.011139	-0.003357	0.047913	-0.047302	0.014343	0.003967	-0.14389	-0.056458	0.028076	-0.00351	-0.001068	-0.11887	0.052795	0.021057	-0.062103	0.2121	-0.016479	-0.083466	-0.046692	-0.005646	0.06897	0.12756	0.086517	0.30182	-0.001221	-0.013428
45.133	0.001373	0.095062	-0.037231	0.00061	-0.075531	0.074463	-0.005188	-0.009308	0.038452	-0.054474	0.011749	-0.007935	-0.052032	-0.084686	-0.006866	0.002441	-0.007324	-0.11765	0.21729	-0.12192	-0.1712	0.22781	-0.050964	-0.03479	-0.077972	-0.074158	-0.019379	0.049133	0.24155	0.25955	-0.002136	-0.008545
45.134	0.00824	0.056458	-0.072327	0.005798	-0.1207	-0.04303	-0.019531	-0.007629	0.045471	-0.066833	0.011139	0.005646	0.034027	-0.15427	-0.016174	-0.018616	-0.000916	-0.095978	0.26947	-0.16556	-0.057526	0.17075	-0.18585	-0.007629	-0.1004	-0.103	-0.005493	0.030212	0.15976	0.50125	-0.00412	-0.00946
45.135	0.016785	0.054169	-0.085907	0.005951	-0.007782	-0.11612	0.001373	-0.005951	0.032959	-0.055542	0.007324	0.00946	0.024567	-0.12665	0.00061	0.001068	0.014496	-0.053253	0.068512	-0.049744	-0.028839	0.091705	-0.074615	0.014801	-0.086517	-0.059967	0.031281	0.068054	0.009308	0.47669	0.000153	-0.013733
45.136	0.01709	0.017548	-0.050964	0.00061	0.04715	-0.082855	-0.01709	-0.013428	0.035706	-0.053864	0.021667	0.002289	-0.083771	-0.10742	0.001373	-0.001221	0.016327	-0.078735	-0.082855	-0.014496	0.053558	0.086823	-0.13489	-0.036774	-0.031738	0.019226	0.044403	0.011902	-0.035706	-0.067139	-0.001221	-0.018005
45.137	0.02594	0.025024	-0.063019	0.001831	0.072784	-0.02594	-0.005188	-0.017395	0.032654	-0.062408	0.017853	0.005951	-0.11826	-0.049133	0.003052	-0.011597	0.017853	-0.040741	-0.33234	0.014648	0.092926	0.11459	-0.22476	-0.013123	0.11429	0.032654	0.011139	-0.007477	-0.047607	-0.32044	0.001678	-0.00351
45.138	0.014801	0.004425	-0.032959	-0.006714	0.055695	-0.010376	-0.019684	-0.011597	0.025787	-0.060425	0.005951	-0.01297	-0.10101	0.015717	-0.006866	-0.00885	0.017548	-0.11276	-0.6282	0.000305	0.021362	0.15381	-0.14435	-0.050049	0.086517	0.042572	0.037842	-0.013885	-0.037689	-0.24002	-0.001526	-0.010834
45.139	0.016937	0.006104	-0.057831	0.010223	0.033264	-0.001526	-0.020905	-0.011444	0.029144	-0.057373	0.016632	-0.015564	-0.078583	0.00885	-0.01236	-0.009613	0.012207	-0.014801	-0.2565	0.024567	-0.18158	0.16968	-0.066071	-0.054626	0.00473	0.015411	-0.052032	-0.035248	0.014648	-0.28992	0.002594	-0.002747
45.14	0.010834	-0.028534	-0.048676	0.012054	0.02121	0.029144	-0.035706	-0.00885	0.028229	-0.075073	0.011902	-0.006714	-0.089111	-0.047607	-0.014343	-0.001526	0.026703	-0.00061	-0.26504	0.085907	-0.31891	0.14557	0.049286	-0.083923	-0.02533	0.042419	0.039825	0.038147	0.016479	-0.31738	-0.001221	-0.010529
